<svg width="24" height="25" viewBox="0 0 24 25" fill="none" xmlns="http://www.w3.org/2000/svg">
<path d="M11.5 12C10.8125 12 10.224 11.7552 9.73438 11.2656C9.24479 10.776 9 10.1875 9 9.5C9 8.8125 9.24479 8.22396 9.73438 7.73438C10.224 7.24479 10.8125 7 11.5 7C12.1875 7 12.776 7.24479 13.2656 7.73438C13.7552 8.22396 14 8.8125 14 9.5C14 10.1875 13.7552 10.776 13.2656 11.2656C12.776 11.7552 12.1875 12 11.5 12ZM6.5 17V15.25C6.5 14.8958 6.59115 14.5703 6.77344 14.2734C6.95573 13.9766 7.19792 13.75 7.5 13.5938C8.14583 13.2708 8.80208 13.0286 9.46875 12.8672C10.1354 12.7057 10.8125 12.625 11.5 12.625C12.1875 12.625 12.8646 12.7057 13.5312 12.8672C14.1979 13.0286 14.8542 13.2708 15.5 13.5938C15.8021 13.75 16.0443 13.9766 16.2266 14.2734C16.4089 14.5703 16.5 14.8958 16.5 15.25V17H6.5ZM7.75 15.75H15.25V15.25C15.25 15.1354 15.2214 15.0312 15.1641 14.9375C15.1068 14.8438 15.0312 14.7708 14.9375 14.7188C14.375 14.4375 13.8073 14.2266 13.2344 14.0859C12.6615 13.9453 12.0833 13.875 11.5 13.875C10.9167 13.875 10.3385 13.9453 9.76562 14.0859C9.19271 14.2266 8.625 14.4375 8.0625 14.7188C7.96875 14.7708 7.89323 14.8438 7.83594 14.9375C7.77865 15.0312 7.75 15.1354 7.75 15.25V15.75ZM11.5 10.75C11.8438 10.75 12.138 10.6276 12.3828 10.3828C12.6276 10.138 12.75 9.84375 12.75 9.5C12.75 9.15625 12.6276 8.86198 12.3828 8.61719C12.138 8.3724 11.8438 8.25 11.5 8.25C11.1562 8.25 10.862 8.3724 10.6172 8.61719C10.3724 8.86198 10.25 9.15625 10.25 9.5C10.25 9.84375 10.3724 10.138 10.6172 10.3828C10.862 10.6276 11.1562 10.75 11.5 10.75Z" fill="#4B5565"/>
<path d="M21 21.5L16.65 17.15M19 11.5C19 15.9183 15.4183 19.5 11 19.5C6.58172 19.5 3 15.9183 3 11.5C3 7.08172 6.58172 3.5 11 3.5C15.4183 3.5 19 7.08172 19 11.5Z" stroke="#4B5565" stroke-width="2" stroke-linecap="round" stroke-linejoin="round"/>
</svg>
